<svg width="127" height="30" viewBox="0 0 127 30" fill="none" xmlns="http://www.w3.org/2000/svg">
<path d="M117.809 13.5202V22.3566H121.201V13.5202C121.201 11.3572 122.605 9.91593 124.687 9.91593V6.89087C120.57 6.91601 117.809 9.56712 117.809 13.5202Z" fill="url(#paint0_linear_4017_34999)"/>
<path d="M81.1611 7.24219L76.7854 18.1483L72.4571 7.24219H68.9951L75.0781 22.357H75.1245L74.6175 23.5375C74.352 24.2058 74.0973 24.6359 73.8535 24.828C73.609 25.0196 73.1716 25.1171 72.5393 25.1171H70.2176L70.2324 28.0007H73.7755C74.5287 28.0007 75.1297 27.874 75.5787 27.6205C76.0458 27.3485 76.4348 26.9619 76.7084 26.4976C77.0141 26.0018 77.3503 25.2885 77.717 24.3576L84.5503 7.24219H81.1611Z" fill="white"/>
<path d="M20.0624 2H16.6699V5.22512H20.0624V2Z" fill="white"/>
<path d="M14.8194 22.3563H7.48016C6.02725 22.3546 4.63432 21.7802 3.60695 20.7591C2.57958 19.738 2.00167 18.3536 2 16.9095V2H5.39243V17.1557C5.39299 17.7061 5.61323 18.2338 6.00484 18.623C6.39644 19.0123 6.92741 19.2312 7.48122 19.2317H14.8204L14.8194 22.3563Z" fill="white"/>
<path d="M107.995 6.98664C104.939 6.98664 102.67 9.05118 101.519 10.481L96.389 17.0192C95.8189 17.7283 94.334 19.773 92.0544 19.773C89.6221 19.773 88.1551 17.656 88.1551 14.8656C88.1551 12.1422 89.6958 10.0735 92.0629 10.0075C93.9598 10.0148 95.4226 11.7264 95.9917 12.4345L96.4565 13.0116L98.3882 10.5752C97.2047 9.13707 95.1212 6.9856 92.1767 6.9856H92.0513C87.6534 6.9856 84.6436 10.5197 84.6436 14.8677C84.6436 19.2398 87.6534 22.798 92.0513 22.798C94.7755 22.798 96.9149 21.0404 98.0657 19.6106L103.922 12.3381C104.722 11.3954 106.041 10.0159 107.906 10.0159H107.995C110.429 10.0159 112.148 12.1108 112.148 14.875C112.148 17.6655 110.429 19.7824 107.995 19.7824C105.506 19.7824 104.32 17.9808 103.393 16.8003L103.351 16.7479L101.419 19.1853L101.607 19.4189C102.987 21.1064 105.061 22.8033 107.525 22.8033C109.654 22.8033 111.327 21.7097 112.005 20.8728V22.3612H115.398V14.8688C115.4 10.5208 112.393 6.98664 107.995 6.98664Z" fill="url(#paint1_angular_4017_34999)"/>
<path d="M16.6699 7.24219V22.357H20.0624V7.24219H16.6699Z" fill="white"/>
<path d="M29.5154 6.89087C25.3979 6.91391 22.6367 9.56503 22.6367 13.5181V22.3545H26.0291V13.5202C26.0291 11.3583 27.4329 9.91593 29.5154 9.91593C31.5978 9.91593 33.0016 11.3583 33.0016 13.5202V22.3566H36.394V13.5202C36.394 9.56712 33.6329 6.91601 29.5154 6.89087Z" fill="white"/>
<path d="M45.6357 14.404L52.1866 7.24148H47.8583L42.3602 13.3576V2H38.9678V22.3563H42.3602V15.5667L48.5602 22.3563H52.6545L45.6357 14.404Z" fill="white"/>
<path fill-rule="evenodd" clip-rule="evenodd" d="M60.2385 6.98485H60.7064C66.5027 6.98485 68.9056 11.5518 68.9056 14.9152C68.9056 19.2642 65.3266 22.7983 60.9277 22.7983C56.5289 22.7983 53.207 19.2642 53.207 14.9152V2H56.5984V6.39932V14.9141C56.5984 17.6794 58.4954 19.7743 60.9277 19.7743C63.3601 19.7743 65.3962 17.6815 65.3962 14.9141C65.3962 12.2766 63.73 10.1492 60.2385 10.1492V6.98485ZM57.8428 10.1509L60.0402 6.98651H60.2383V10.1509H60.0402H57.8428Z" fill="white"/>
<defs>
<linearGradient id="paint0_linear_4017_34999" x1="113.641" y1="9.32441" x2="133.088" y2="27.1315" gradientUnits="userSpaceOnUse">
<stop stop-color="#35FFE8"/>
<stop stop-color="#35FFE8"/>
<stop offset="1" stop-color="#35F2FF" stop-opacity="0.42"/>
</linearGradient>
<radialGradient id="paint1_angular_4017_34999" cx="0" cy="0" r="1" gradientUnits="userSpaceOnUse" gradientTransform="translate(108.265 10.1708) rotate(133.184) scale(22.1728 37.6499)">
<stop stop-color="#35FFE8"/>
<stop offset="1" stop-color="#33EEFB" stop-opacity="0.27"/>
</radialGradient>
</defs>
</svg>
